
  <svg id="Layer_3" style="enable-background:new 0 0 64 64;" version="1.1" viewBox="0 0 64 64" xml:space="preserve" xmlns="http://www.w3.org/2000/svg" xmlns:xlink="http://www.w3.org/1999/xlink">
  <path d="M62.707,50.707c0.286-0.286,0.372-0.716,0.217-1.09C62.77,49.243,62.404,49,62,49h-1.111C62.19,47.728,63,45.958,63,44  c0-2.785-1.639-5.188-4-6.315V9c0-0.135-0.027-0.27-0.081-0.394l-3-7C55.762,1.238,55.4,1,55,1s-0.762,0.238-0.919,0.606l-3,7  C51.027,8.73,51,8.865,51,9v28h-4V12V2c0-0.552-0.447-1-1-1H7C3.691,1,1,3.691,1,7v51c0,2.757,2.243,5,5,5h4h16h1h35  c0.404,0,0.77-0.243,0.924-0.617c0.155-0.374,0.069-0.804-0.217-1.09l-2.586-2.586C59.408,57.994,59,57.008,59,56  s0.408-1.994,1.121-2.707L62.707,50.707z M24,60.576c-1.763-0.774-3-2.531-3-4.576s1.237-3.802,3-4.576V60.576z M22.414,49  l0.879-0.879C24.14,47.274,24.7,46.172,24.907,45H55v4H26H22.414z M55,43H24.907c-0.207-1.172-0.767-2.274-1.614-3.121L22.414,39H55  V43z M61,44c0,2.414-1.721,4.434-4,4.899v-9.798C59.279,39.566,61,41.586,61,44z M57,10v21h-4V10H57z M55,4.539L56.484,8h-2.967  L55,4.539z M53,33h4v4.08C56.672,37.033,56.34,37,56,37h-3V33z M7,3h38v8H27.618l1.277-2.553c0.155-0.31,0.139-0.678-0.044-0.973  C28.668,7.18,28.347,7,28,7H18c-0.379,0-0.725,0.214-0.895,0.553L15.382,11H7c-2.206,0-4-1.794-4-4S4.794,3,7,3z M39,13h2v14  c0,0.551-0.448,1-1,1s-1-0.449-1-1V13z M31,13h2v17c0,0.551-0.448,1-1,1s-1-0.449-1-1V13z M25.105,11.553  C25.036,11.691,25,11.845,25,12v15.586l-3.293-3.293C21.512,24.098,21.256,24,21,24s-0.512,0.098-0.707,0.293L17,27.586v-15.35  L18.618,9h7.764L25.105,11.553z M3,58V11.46C4.063,12.414,5.462,13,7,13h2v48H6C4.346,61,3,59.654,3,58z M11,61V13h4v17  c0,0.404,0.243,0.769,0.617,0.924s0.804,0.069,1.09-0.217L21,26.414l4.293,4.293C25.484,30.898,25.74,31,26,31  c0.129,0,0.259-0.025,0.383-0.076C26.757,30.769,27,30.404,27,30V13h2v17c0,1.654,1.346,3,3,3s3-1.346,3-3V13h2v14  c0,1.654,1.346,3,3,3s3-1.346,3-3V13h2v24H20c-0.404,0-0.77,0.243-0.924,0.617c-0.155,0.374-0.069,0.804,0.217,1.09l2.586,2.586  C22.592,42.006,23,42.992,23,44s-0.408,1.994-1.121,2.707l-2.586,2.586c-0.286,0.286-0.372,0.716-0.217,1.09  C19.23,50.757,19.596,51,20,51h1.111C19.81,52.272,19,54.042,19,56s0.81,3.728,2.111,5H11z M59.586,61H27h-1v-4h31.093  c0.207,1.172,0.767,2.274,1.614,3.121L59.586,61z M58.707,51.879C57.86,52.726,57.3,53.828,57.093,55H26v-4h30h3.586L58.707,51.879z  "/>
  </svg>